# xmcd
#
# Track frame offsets:
#	150
#	13948
#	27795
#	41437
#	53686
#	68794
#	86403
#	101039
#	124222
#	142471
#	158690
#	179016
#
# Disc length: 2679 seconds
#
# Revision: 1
# Processed by: cddbd v1.5.2PL0 Copyright (c) Steve Scherf et al.
# Submitted via: audiograbber 1.83.01
#
DISCID=a50a750c
DTITLE=Vic Ruggiero - On the Ragtime
DYEAR=2009
DGENRE=Ragtimes
TTITLE0=Never Go Back Home
TTITLE1=Lonely Nights
TTITLE2=This
TTITLE3=Sweet Comforts Of Home
TTITLE4=Papa Told Me
TTITLE5=You Must Be Good
TTITLE6=Yes It's True
TTITLE7=Old Days
TTITLE8=Don't Gimme Your Love
TTITLE9=Neatly
TTITLE10=Mad At Me
TTITLE11=On The Ragtime
EXTD=
EXTT0=
EXTT1=
EXTT2=
EXTT3=
EXTT4=
EXTT5=
EXTT6=
EXTT7=
EXTT8=
EXTT9=
EXTT10=
EXTT11=
PLAYORDER=
